<?xml version="1.0" encoding="UTF-8" standalone="no"?>
<!DOCTYPE svg PUBLIC "-//W3C//DTD SVG 1.1//EN" "http://www.w3.org/Graphics/SVG/1.1/DTD/svg11.dtd">
<svg xmlns="http://www.w3.org/2000/svg" version="1.1" viewBox="0.00 0.00 1920.00 1080.00">
<path fill="#000000" d="
  M 696.43 474.38
  C 691.35 481.05 685.12 487.66 678.88 494.36
  Q 663.74 510.62 648.75 525.90
  A 2.78 2.76 39.0 0 1 645.24 526.26
  C 621.30 510.32 598.10 493.22 574.54 476.72
  C 566.51 471.10 565.70 462.08 563.47 453.45
  Q 560.92 443.57 558.56 432.26
  A 0.84 0.84 0.0 0 0 556.92 432.26
  Q 554.93 441.94 551.91 451.91
  Q 551.08 454.64 549.73 456.47
  Q 549.38 456.94 548.87 456.65
  Q 545.62 454.78 541.84 451.42
  Q 524.29 435.77 511.27 418.73
  C 508.46 415.06 509.77 407.26 511.01 403.01
  Q 528.67 342.60 558.21 288.35
  Q 559.31 286.34 563.25 280.44
  C 565.84 276.58 567.29 271.65 570.41 268.28
  C 574.38 263.98 577.02 258.11 579.34 254.32
  C 584.36 246.11 589.00 237.88 594.86 230.34
  C 602.79 220.15 610.34 210.23 619.66 200.81
  Q 626.36 194.03 632.24 186.53
  Q 637.11 180.33 640.04 177.68
  C 643.99 174.11 648.62 171.19 652.32 167.71
  C 663.75 156.98 674.71 148.23 688.19 137.36
  Q 706.51 122.58 724.68 110.93
  Q 754.88 91.57 766.04 86.02
  Q 782.97 77.59 799.78 68.92
  C 810.72 63.28 822.75 59.66 834.28 55.35
  C 839.98 53.22 849.26 50.28 856.54 46.78
  C 860.46 44.90 864.73 43.62 868.88 42.68
  C 891.72 37.51 914.65 33.25 937.63 28.85
  Q 952.92 25.93 968.50 25.22
  Q 978.89 24.75 989.25 23.73
  Q 990.58 23.60 992.31 24.47
  A 1.07 1.07 0.0 0 1 992.85 25.15
  C 994.28 30.66 992.13 35.74 989.81 41.06
  Q 977.98 68.14 967.94 89.21
  Q 967.91 89.27 965.42 95.43
  C 964.12 98.66 961.72 101.77 960.37 104.33
  C 937.08 148.64 914.43 186.73 889.67 224.94
  C 887.55 228.22 885.96 231.49 884.24 234.94
  C 881.83 239.78 877.21 242.22 874.56 247.12
  Q 868.67 258.00 860.79 267.54
  C 857.48 271.54 855.59 276.56 852.74 280.49
  C 845.89 289.95 836.85 300.75 829.63 311.83
  Q 821.61 324.14 817.42 329.42
  Q 779.97 376.59 742.54 423.68
  A 0.49 0.49 0.0 0 0 742.55 424.31
  C 770.15 456.94 800.29 485.64 832.44 516.80
  C 836.33 520.57 839.01 519.08 841.88 515.23
  Q 858.37 493.11 875.40 471.44
  C 881.10 464.19 887.78 457.96 893.49 450.72
  Q 912.46 426.67 931.71 402.83
  C 936.23 397.24 941.75 392.98 946.22 387.48
  Q 954.02 377.88 961.67 368.18
  Q 963.93 365.31 966.80 363.05
  Q 971.53 359.32 980.31 348.06
  C 986.66 339.91 996.42 330.90 1002.25 324.66
  C 1032.43 292.37 1055.89 269.88 1084.00 243.60
  C 1099.43 229.19 1112.56 215.76 1135.98 219.51
  C 1139.68 220.11 1142.47 221.62 1145.74 224.05
  C 1161.12 235.49 1175.77 248.03 1190.54 259.75
  Q 1242.32 300.89 1257.06 312.45
  C 1270.05 322.64 1285.54 332.45 1296.68 345.31
  C 1304.46 354.28 1302.02 370.12 1297.59 380.02
  C 1295.42 384.88 1291.48 392.25 1288.02 398.04
  Q 1261.85 441.88 1234.62 485.08
  C 1231.84 489.49 1227.68 496.79 1223.56 502.32
  C 1213.84 515.35 1205.45 529.45 1197.22 543.46
  Q 1196.20 545.19 1193.12 548.62
  Q 1180.66 562.45 1169.64 577.43
  C 1161.11 589.03 1152.06 604.15 1143.95 615.69
  Q 1126.10 641.08 1103.51 665.11
  C 1091.10 678.30 1081.63 689.65 1071.77 703.56
  A 1.10 1.10 0.0 0 0 1071.99 705.07
  Q 1092.69 720.92 1113.70 737.30
  Q 1115.78 738.92 1124.50 741.30
  Q 1124.85 741.39 1124.67 741.70
  Q 1124.52 741.96 1124.32 741.91
  Q 1116.74 740.20 1109.00 739.52
  Q 1103.57 739.04 1090.76 734.97
  C 1049.11 721.74 1007.80 707.50 967.66 690.15
  C 954.87 684.62 940.60 679.39 929.58 670.67
  Q 900.58 647.71 871.61 624.72
  C 863.47 618.26 856.38 611.67 848.98 604.68
  A 2.35 2.35 0.0 0 0 845.73 604.69
  C 844.21 606.14 842.52 608.06 841.52 610.15
  Q 837.66 618.17 831.69 626.44
  Q 829.27 629.78 825.61 628.04
  Q 804.51 618.00 784.49 605.98
  C 782.78 604.95 782.67 603.51 783.45 601.71
  Q 786.31 595.10 789.66 588.73
  C 792.20 583.91 796.55 581.17 799.02 576.21
  Q 801.38 571.47 803.70 566.73
  C 805.90 562.22 791.03 550.41 787.53 548.25
  C 785.42 546.94 783.37 543.52 781.64 541.75
  C 773.84 533.82 765.36 526.82 757.81 518.57
  Q 751.39 511.56 744.48 505.02
  C 731.82 493.05 721.15 479.92 708.46 467.04
  C 705.38 463.90 698.32 471.88 696.43 474.38
  Z
  M 801.62 125.75
  Q 801.10 126.27 801.37 126.75
  Q 801.56 127.08 802.11 127.19
  Q 803.61 127.46 804.25 127.24
  Q 808.17 125.93 813.25 126.01
  Q 851.32 126.60 884.07 129.03
  C 885.77 129.16 887.27 128.49 888.19 127.19
  Q 894.05 118.91 898.98 109.15
  C 902.07 103.03 906.72 95.94 909.55 88.70
  A 0.93 0.93 0.0 0 0 908.49 87.45
  Q 853.63 99.34 803.44 124.45
  Q 802.42 124.96 801.62 125.75
  Z
  M 820.05 239.44
  C 822.26 234.93 823.69 229.94 826.80 226.18
  C 830.03 222.26 834.18 219.64 834.01 213.66
  A 1.27 1.26 -25.8 0 1 834.32 212.78
  C 842.69 203.10 850.62 193.69 854.98 181.28
  Q 855.16 180.76 854.66 180.53
  Q 850.72 178.76 844.76 178.63
  C 799.29 177.64 756.46 182.04 714.99 198.62
  A 0.61 0.61 0.0 0 0 714.92 199.71
  C 716.62 200.65 718.53 201.73 720.42 202.32
  Q 740.95 208.70 761.46 215.18
  Q 770.39 218.00 778.71 221.71
  Q 798.75 230.65 818.52 239.97
  A 1.15 1.15 0.0 0 0 820.05 239.44
  Z
  M 706.35 379.90
  A 1.30 1.29 -38.0 0 0 708.12 380.11
  Q 712.73 376.71 716.56 371.84
  Q 748.98 330.56 781.99 289.76
  Q 783.50 287.90 784.39 285.74
  A 2.00 1.98 -66.3 0 0 783.40 283.18
  C 753.46 269.08 722.41 256.57 689.98 249.18
  C 682.70 247.52 675.30 247.36 667.74 246.70
  C 661.57 246.16 656.61 247.05 650.92 248.59
  C 638.13 252.05 641.39 270.27 645.05 279.32
  C 651.32 294.81 658.35 310.25 667.12 324.59
  C 678.97 343.94 691.77 362.50 706.35 379.90
  Z
  M 1031.28 370.29
  Q 1036.11 374.68 1040.32 378.43
  C 1043.55 381.31 1050.61 382.82 1055.08 386.36
  Q 1096.58 419.25 1138.03 452.21
  Q 1146.85 459.22 1159.12 470.73
  Q 1160.50 472.02 1163.34 473.64
  Q 1168.30 476.47 1170.59 481.81
  A 1.06 1.06 0.0 0 0 1172.50 481.89
  C 1176.72 474.05 1183.01 463.12 1189.92 457.32
  A 1.55 1.50 78.8 0 0 1190.41 456.56
  Q 1192.55 448.92 1194.29 447.04
  C 1197.02 444.09 1199.66 441.78 1201.62 438.18
  Q 1211.48 420.08 1222.25 402.50
  C 1223.05 401.20 1224.45 399.99 1225.08 398.67
  Q 1229.04 390.36 1234.29 382.82
  C 1236.53 379.61 1237.35 376.50 1238.91 373.00
  C 1241.28 367.70 1228.22 360.43 1225.38 356.35
  Q 1222.27 351.89 1217.99 348.53
  Q 1187.88 324.92 1158.07 300.93
  C 1146.21 291.39 1135.89 286.32 1124.51 277.79
  A 0.72 0.72 0.0 0 0 1123.63 277.81
  C 1113.33 286.31 1104.09 295.74 1094.26 304.77
  C 1077.84 319.84 1062.52 335.79 1047.01 351.79
  C 1043.01 355.91 1035.56 361.98 1031.08 368.62
  Q 1030.46 369.55 1031.28 370.29
  Z
  M 609.01 332.59
  Q 607.32 335.96 606.94 339.41
  C 606.15 346.49 604.68 353.68 604.72 360.58
  Q 604.85 380.05 606.80 399.44
  C 609.65 427.71 613.39 449.73 621.48 474.17
  Q 621.92 475.47 623.05 474.70
  C 632.75 468.15 639.41 459.23 646.69 450.14
  C 649.30 446.89 652.75 444.82 655.41 441.73
  Q 659.77 436.67 663.93 431.43
  C 667.66 426.72 674.24 427.18 667.84 418.95
  C 657.44 405.57 647.03 392.27 637.98 377.73
  Q 628.60 362.64 619.14 347.60
  C 616.21 342.95 613.89 337.85 611.27 332.90
  Q 610.54 331.52 609.49 332.25
  A 0.60 0.00 -35.1 0 0 609.01 332.59
  Z
  M 879.44 557.94
  C 889.96 566.07 899.85 573.67 909.54 583.05
  Q 917.99 591.24 922.18 594.57
  Q 952.72 618.79 983.29 642.96
  Q 985.89 645.02 991.99 648.66
  C 1003.09 655.29 1013.46 663.60 1023.27 671.93
  A 1.47 1.47 0.0 0 0 1025.34 671.76
  Q 1036.07 659.16 1046.32 646.09
  Q 1046.93 645.32 1048.73 643.98
  Q 1052.94 640.87 1057.60 635.12
  C 1070.06 619.75 1082.59 604.39 1094.61 588.67
  Q 1100.38 581.12 1110.18 571.19
  Q 1114.60 566.71 1117.62 559.61
  Q 1118.93 556.52 1120.66 554.40
  Q 1130.86 541.83 1141.13 529.27
  Q 1141.39 528.96 1141.25 528.57
  L 1139.44 523.32
  A 0.59 0.57 12.2 0 0 1139.26 523.05
  Q 1137.24 521.21 1134.22 519.02
  Q 1122.18 510.34 1110.85 499.14
  Q 1102.35 490.75 1091.60 482.40
  Q 1080.98 474.16 1046.25 446.25
  Q 1038.15 439.74 1027.05 432.90
  C 1018.60 427.68 1012.39 422.92 1005.64 416.86
  C 1000.84 412.56 993.45 407.24 989.02 414.23
  C 982.61 424.35 972.92 434.99 963.84 444.69
  Q 958.72 450.16 954.41 455.53
  C 947.19 464.52 939.80 473.04 933.06 482.58
  Q 920.95 499.74 907.78 516.10
  C 905.32 519.16 904.10 522.42 902.55 525.92
  C 901.44 528.42 899.35 529.80 897.71 531.97
  Q 888.40 544.23 879.26 556.59
  A 0.98 0.97 37.5 0 0 879.44 557.94
  Z"
/>
<path fill="#000000" d="
  M 1308.25 55.84
  Q 1308.48 55.01 1308.79 55.81
  C 1318.19 80.08 1331.17 103.52 1342.19 126.80
  A 3.32 3.31 83.1 0 0 1344.53 128.64
  Q 1386.54 137.28 1428.90 145.97
  Q 1430.77 146.36 1432.07 147.01
  A 0.71 0.71 0.0 0 1 1432.05 148.28
  Q 1411.15 158.16 1390.27 168.01
  C 1379.69 173.00 1369.32 178.82 1358.89 184.37
  A 3.94 3.93 81.8 0 0 1356.87 187.07
  L 1341.76 262.06
  Q 1341.33 264.20 1340.22 262.32
  Q 1322.51 232.29 1304.98 202.57
  C 1303.18 199.54 1300.07 193.62 1296.21 193.62
  Q 1295.70 193.61 1295.37 193.23
  Q 1294.34 192.02 1292.75 191.78
  Q 1258.81 186.53 1225.02 180.38
  Q 1224.47 180.28 1224.39 180.08
  Q 1224.12 179.48 1224.69 179.14
  Q 1255.88 160.39 1286.95 141.70
  C 1293.91 137.51 1296.15 120.93 1297.43 113.49
  Q 1301.24 91.32 1305.17 69.18
  Q 1306.34 62.61 1308.25 55.84
  Z"
/>
<path fill="#000000" d="
  M 1749.35 744.15
  C 1735.41 730.62 1721.31 717.15 1708.50 702.54
  Q 1708.28 702.29 1708.53 702.08
  Q 1708.65 701.98 1708.74 701.89
  Q 1708.80 701.81 1708.88 701.88
  Q 1717.31 708.70 1725.65 715.63
  C 1729.70 719.00 1734.88 722.08 1739.28 725.73
  C 1773.31 753.94 1806.07 784.77 1834.35 818.81
  C 1845.57 832.32 1856.28 847.83 1865.18 862.07
  C 1880.84 887.12 1892.23 914.92 1893.15 945.51
  C 1893.35 952.22 1893.07 957.82 1891.19 964.26
  C 1885.07 985.23 1870.95 1003.46 1851.37 1013.66
  C 1839.07 1020.07 1826.16 1026.22 1812.96 1029.97
  C 1794.85 1035.12 1774.12 1039.32 1755.31 1039.73
  Q 1713.98 1040.63 1695.19 1041.64
  C 1682.40 1042.33 1671.32 1042.62 1658.30 1041.32
  Q 1637.04 1039.20 1615.75 1037.21
  C 1570.47 1032.98 1525.76 1024.30 1481.00 1016.51
  Q 1462.04 1013.21 1432.07 1006.16
  Q 1396.20 997.72 1332.12 979.95
  Q 1326.71 978.46 1312.96 974.28
  C 1296.70 969.35 1279.59 965.78 1263.89 961.25
  C 1186.16 938.81 1115.13 914.91 1039.65 885.78
  Q 1030.71 882.33 1020.88 878.89
  Q 970.37 861.24 921.02 840.59
  C 909.15 835.63 894.02 828.26 882.95 824.03
  Q 864.63 817.02 854.33 812.41
  Q 822.04 797.94 744.87 762.62
  C 725.93 753.95 707.71 743.98 688.87 735.12
  C 653.57 718.51 622.82 701.31 584.14 681.56
  Q 575.50 677.15 566.51 672.13
  C 539.71 657.14 512.25 643.22 485.62 627.99
  C 441.07 602.52 399.75 578.55 357.81 550.70
  C 315.24 522.43 272.64 494.23 231.79 463.49
  C 216.90 452.28 202.55 439.90 188.05 428.03
  C 173.42 416.05 155.62 400.06 145.20 390.80
  Q 112.40 361.65 83.03 327.83
  C 67.13 309.51 54.05 290.21 41.23 268.27
  C 27.94 245.51 19.98 223.44 20.07 197.25
  C 20.15 177.87 31.09 157.74 44.46 144.20
  C 48.59 140.03 54.00 137.62 58.09 134.68
  Q 70.89 125.47 83.30 120.30
  C 102.61 112.25 125.54 109.08 146.79 104.89
  C 155.88 103.10 165.43 103.44 174.69 102.98
  Q 218.18 100.83 265.74 103.83
  C 290.94 105.42 313.51 108.91 337.38 111.75
  Q 348.22 113.03 357.20 114.46
  C 397.76 120.94 432.05 127.87 469.20 135.72
  Q 495.62 141.29 521.65 148.39
  C 530.41 150.78 540.67 152.51 548.50 154.74
  Q 574.41 162.10 600.75 167.74
  Q 602.51 168.11 605.06 169.59
  Q 605.48 169.84 605.66 170.29
  C 607.74 175.56 594.39 187.81 589.70 191.73
  A 1.07 1.06 -61.7 0 1 588.87 191.98
  Q 585.55 191.55 582.42 190.61
  Q 539.44 177.78 504.49 170.01
  C 482.50 165.13 460.48 159.69 438.33 155.55
  C 419.24 151.98 400.21 147.54 381.06 144.55
  C 367.15 142.37 353.50 140.03 339.32 138.38
  Q 325.10 136.73 310.91 134.86
  C 292.58 132.44 274.07 131.46 255.68 129.84
  C 213.67 126.16 173.86 126.86 133.90 132.97
  C 115.09 135.85 99.46 138.77 83.80 147.54
  Q 73.31 153.42 68.72 155.82
  C 64.67 157.93 64.57 161.08 61.48 163.69
  C 44.24 178.27 41.06 207.18 48.83 226.93
  C 52.17 235.41 55.31 244.15 59.44 251.99
  Q 67.01 266.35 75.95 279.90
  C 81.89 288.89 89.91 297.28 97.03 305.97
  C 99.11 308.49 100.90 311.93 103.19 314.67
  C 105.91 317.94 111.01 319.62 113.20 323.07
  Q 119.84 333.47 130.75 343.50
  C 155.00 365.76 179.73 389.94 204.53 409.23
  C 231.63 430.31 256.34 450.30 274.19 462.81
  C 302.79 482.86 331.29 503.81 360.70 522.62
  C 397.70 546.30 433.34 568.41 473.44 590.81
  C 486.17 597.92 500.14 607.22 513.59 614.47
  C 572.63 646.31 609.43 666.52 659.05 691.50
  Q 666.77 695.38 676.68 700.92
  Q 708.13 718.47 741.23 732.65
  C 785.28 751.52 828.83 771.78 872.68 791.14
  Q 881.82 795.17 891.10 798.90
  Q 945.57 820.82 1000.20 842.33
  C 1032.61 855.10 1065.53 866.55 1097.98 879.31
  C 1114.53 885.81 1132.16 891.07 1148.19 896.39
  Q 1173.23 904.70 1198.58 912.02
  C 1217.52 917.49 1236.13 923.95 1255.11 929.33
  C 1286.56 938.25 1317.64 948.37 1349.29 956.63
  C 1387.94 966.73 1417.61 974.79 1465.46 985.17
  C 1494.13 991.38 1523.71 995.41 1552.74 999.57
  C 1584.53 1004.13 1618.04 1006.87 1650.26 1008.68
  C 1675.68 1010.12 1701.63 1009.45 1727.11 1009.52
  Q 1734.82 1009.54 1742.31 1008.55
  C 1783.24 1003.09 1823.26 999.03 1854.48 968.48
  C 1860.23 962.85 1862.95 953.68 1865.81 946.38
  Q 1872.38 929.62 1867.78 912.48
  C 1863.16 895.28 1857.44 878.58 1847.55 862.84
  C 1825.66 827.98 1802.76 797.42 1773.48 768.44
  Q 1771.28 766.26 1767.22 761.40
  C 1761.93 755.06 1755.27 749.89 1749.35 744.15
  Z"
/>
<path fill="#000000" d="
  M 170.45 247.61
  C 173.72 231.55 183.79 213.73 198.60 205.13
  C 213.27 196.61 225.57 189.92 241.24 185.73
  C 252.53 182.72 267.56 179.15 280.80 178.51
  C 290.77 178.03 300.60 176.32 310.31 175.40
  C 315.81 174.87 322.21 173.47 327.95 174.90
  Q 339.30 177.72 350.89 176.37
  C 357.00 175.65 365.99 174.72 371.56 176.56
  C 373.68 177.26 375.68 178.25 377.92 178.37
  C 383.52 178.65 387.13 177.85 391.78 177.56
  C 395.01 177.37 398.91 179.13 402.43 179.57
  C 411.34 180.69 420.71 181.45 429.17 182.71
  Q 485.38 191.10 509.43 196.10
  Q 539.62 202.36 570.59 209.23
  A 1.14 1.13 23.3 0 1 571.29 210.97
  Q 567.63 216.36 563.16 221.27
  C 556.75 228.32 551.97 233.03 542.57 230.44
  C 527.74 226.36 515.86 222.97 501.11 220.72
  Q 479.33 217.41 457.62 213.72
  C 454.83 213.25 448.54 211.52 443.83 211.17
  Q 440.11 210.90 437.73 210.45
  C 425.32 208.11 411.32 207.20 399.36 206.40
  C 395.61 206.15 391.77 205.02 388.07 204.68
  C 379.92 203.92 370.74 204.35 362.37 202.82
  C 358.11 202.04 354.25 201.10 349.84 201.32
  C 321.30 202.70 293.65 201.98 264.34 206.56
  Q 240.21 210.32 219.69 221.71
  C 213.09 225.37 207.72 233.04 203.37 238.15
  C 197.38 245.18 195.26 257.64 195.14 266.56
  C 195.03 274.37 198.69 282.82 201.56 290.06
  C 202.58 292.62 202.30 295.48 203.88 298.40
  C 218.46 325.40 236.99 348.65 258.93 370.97
  Q 316.08 429.11 382.42 476.54
  C 413.34 498.65 444.87 519.60 476.50 540.63
  Q 484.90 546.22 493.35 551.39
  C 547.68 584.61 596.60 613.43 651.67 643.06
  C 680.00 658.30 709.28 671.81 737.83 686.65
  C 758.56 697.42 779.64 707.76 801.36 716.40
  Q 843.15 733.03 883.32 753.26
  Q 893.24 758.25 901.40 761.79
  Q 950.83 783.20 988.98 797.80
  C 1003.07 803.19 1020.54 807.97 1035.67 813.37
  Q 1082.13 829.94 1128.61 846.46
  C 1149.01 853.71 1170.20 859.18 1190.89 865.63
  C 1229.75 877.75 1265.82 888.13 1309.00 897.76
  Q 1324.01 901.11 1359.10 911.01
  C 1368.99 913.81 1379.49 915.49 1389.68 916.75
  C 1394.66 917.36 1398.17 919.98 1402.81 920.59
  C 1417.37 922.50 1431.90 925.16 1446.42 927.41
  C 1469.33 930.97 1494.05 935.75 1511.25 937.49
  Q 1540.04 940.40 1593.16 942.11
  C 1597.89 942.26 1602.85 942.12 1607.55 941.57
  Q 1624.27 939.62 1640.98 937.59
  Q 1650.54 936.43 1658.33 934.46
  C 1671.37 931.17 1686.31 927.20 1696.90 918.54
  C 1699.02 916.80 1701.69 915.30 1703.48 913.57
  C 1711.11 906.17 1717.77 893.91 1718.86 883.30
  C 1720.49 867.33 1718.29 853.47 1712.20 838.16
  Q 1700.76 809.40 1682.95 786.30
  Q 1663.86 761.53 1637.05 732.08
  C 1620.59 714.00 1602.48 697.15 1583.99 681.04
  A 0.31 0.31 0.0 0 1 1584.37 680.55
  C 1585.13 681.05 1586.09 681.19 1586.79 681.61
  C 1596.97 687.71 1608.03 693.54 1617.10 701.18
  Q 1636.44 717.46 1654.93 734.70
  C 1674.82 753.23 1692.70 774.53 1708.93 796.32
  Q 1723.10 815.34 1734.58 838.93
  C 1738.56 847.12 1741.09 854.20 1742.33 863.31
  C 1744.04 875.93 1744.21 888.68 1740.25 900.91
  C 1737.64 908.98 1734.58 916.97 1728.95 923.44
  C 1719.15 934.71 1708.31 942.46 1694.15 948.71
  C 1671.85 958.57 1646.16 966.56 1621.60 966.83
  Q 1608.72 966.96 1605.79 967.10
  Q 1587.33 967.92 1568.85 967.24
  Q 1566.88 967.16 1564.33 966.63
  C 1559.76 965.66 1555.81 967.28 1551.25 967.01
  C 1540.13 966.34 1529.27 965.58 1517.96 964.20
  Q 1455.73 956.64 1420.00 950.25
  C 1370.34 941.37 1313.21 926.28 1254.75 911.18
  Q 1244.81 908.62 1235.49 905.81
  Q 1192.12 892.77 1149.02 878.84
  C 1130.26 872.77 1109.10 866.76 1092.57 860.93
  Q 994.99 826.58 905.18 789.06
  C 883.82 780.13 859.91 769.05 836.25 758.86
  Q 818.72 751.30 800.18 742.33
  C 758.61 722.19 711.87 700.25 657.36 672.57
  Q 648.34 667.98 639.69 663.23
  C 568.48 624.04 497.91 583.99 429.83 539.51
  Q 423.50 535.37 412.97 528.74
  C 378.08 506.77 344.91 481.99 313.24 455.60
  C 301.06 445.46 288.79 433.56 276.23 422.84
  C 263.12 411.65 251.46 400.10 239.45 388.30
  C 225.58 374.68 214.21 359.26 202.85 343.59
  C 193.52 330.71 185.65 316.26 178.58 302.66
  C 171.88 289.76 170.64 274.46 169.77 260.03
  Q 169.35 253.02 170.45 247.61
  Z"
/>
<path fill="#000000" d="
  M 1527.50 712.57
  C 1551.34 732.21 1569.61 756.68 1584.75 784.74
  C 1592.63 799.35 1599.00 821.80 1593.18 838.75
  C 1588.46 852.53 1578.82 865.01 1566.15 872.46
  C 1550.98 881.37 1533.79 887.78 1516.31 889.97
  C 1494.10 892.76 1470.82 894.60 1446.51 893.16
  C 1416.76 891.39 1386.42 890.03 1356.94 885.50
  Q 1304.38 877.43 1252.85 864.37
  C 1228.72 858.25 1204.87 850.44 1181.01 843.33
  Q 1138.55 830.66 1088.21 813.75
  C 1075.77 809.57 1063.86 804.89 1052.47 801.29
  C 1023.77 792.22 995.43 781.60 967.32 770.86
  Q 958.94 767.65 948.80 763.30
  C 933.60 756.78 917.94 750.51 903.12 743.94
  Q 857.27 723.60 811.76 702.52
  Q 803.98 698.92 793.46 694.46
  Q 765.43 682.57 738.26 668.85
  C 727.01 663.17 713.56 657.55 704.53 652.50
  Q 678.75 638.09 652.78 624.02
  C 617.83 605.08 584.07 584.03 550.21 563.23
  C 516.76 542.69 485.98 518.65 455.10 494.53
  C 444.53 486.27 434.66 477.16 424.25 468.66
  Q 386.56 437.89 356.60 402.66
  C 339.50 382.55 323.94 357.96 318.10 331.22
  C 314.03 312.54 322.92 289.35 337.86 277.35
  C 351.73 266.21 368.27 259.78 385.50 255.99
  C 410.39 250.52 434.40 247.97 459.52 249.99
  C 467.39 250.62 475.24 250.38 483.10 251.05
  Q 507.43 253.10 531.75 255.26
  C 534.02 255.46 534.95 256.70 533.76 258.80
  Q 531.03 263.64 526.03 270.03
  C 520.19 277.49 513.64 276.62 504.74 276.10
  Q 469.27 274.01 430.31 274.62
  C 410.42 274.92 390.98 277.81 372.08 283.37
  C 357.68 287.61 342.54 302.18 340.77 317.57
  C 339.80 325.95 342.00 333.25 344.99 342.02
  C 348.76 353.09 354.12 361.04 361.82 371.87
  C 386.14 406.08 418.20 433.14 449.21 461.00
  C 452.91 464.33 457.61 465.29 460.95 468.65
  Q 464.44 472.16 467.68 474.58
  C 509.99 506.21 545.45 531.33 588.53 556.70
  C 613.42 571.35 638.27 586.32 663.58 600.24
  Q 707.75 624.55 737.56 640.45
  C 747.08 645.53 757.82 650.81 768.99 655.82
  Q 799.95 669.71 830.36 684.73
  Q 840.11 689.55 848.43 693.32
  Q 886.40 710.53 924.43 727.63
  C 948.43 738.43 973.66 747.36 998.33 756.53
  C 1011.27 761.34 1025.26 767.50 1038.95 772.52
  Q 1104.87 796.67 1172.82 814.23
  C 1191.56 819.08 1210.69 825.21 1228.74 829.79
  Q 1242.52 833.29 1277.60 841.82
  C 1324.22 853.16 1371.25 860.35 1418.76 866.69
  C 1440.68 869.61 1463.59 868.61 1485.82 868.29
  Q 1510.90 867.92 1535.04 861.19
  Q 1549.71 857.09 1560.19 849.93
  C 1565.35 846.40 1566.57 841.31 1570.45 836.60
  C 1576.44 829.32 1576.88 823.01 1576.01 813.10
  C 1574.95 801.06 1574.84 792.43 1569.34 781.25
  C 1560.64 763.57 1554.67 751.86 1543.96 737.91
  Q 1534.75 725.92 1527.30 712.73
  A 0.13 0.13 0.0 0 1 1527.50 712.57
  Z"
/>
<path fill="#000000" d="
  M 507.48 475.27
  Q 476.55 445.71 455.07 416.43
  C 444.91 402.57 436.32 379.94 438.83 362.45
  C 443.09 332.84 474.00 319.24 499.19 311.58
  C 501.94 310.75 504.78 310.34 507.60 309.89
  A 0.56 0.55 5.4 0 1 508.21 310.62
  Q 505.44 318.35 499.65 324.09
  C 494.64 329.05 486.04 331.31 481.27 335.26
  Q 468.51 345.82 464.63 349.61
  C 451.33 362.54 459.01 386.00 467.13 399.10
  C 470.74 404.93 476.77 411.06 480.67 417.82
  C 482.28 420.61 483.55 423.06 485.77 425.48
  Q 503.41 444.68 509.16 450.08
  Q 518.10 458.47 547.62 483.12
  Q 573.07 504.36 600.46 523.03
  C 619.71 536.15 639.22 549.67 659.50 561.15
  C 710.95 590.25 757.78 616.40 806.62 641.90
  Q 815.33 646.45 824.60 650.65
  C 840.88 658.04 857.09 665.59 873.52 672.58
  C 913.83 689.73 952.64 705.57 994.32 724.43
  Q 1007.36 730.33 1025.52 736.18
  C 1076.67 752.64 1127.37 770.45 1178.91 785.68
  C 1202.27 792.59 1226.00 798.51 1249.50 804.98
  Q 1257.41 807.16 1276.86 810.67
  Q 1318.53 818.20 1360.83 820.41
  Q 1367.30 820.75 1373.77 821.31
  Q 1388.40 822.58 1402.97 820.79
  Q 1432.16 817.20 1451.76 812.81
  Q 1481.04 806.26 1498.73 803.39
  Q 1499.92 803.20 1498.90 803.82
  C 1497.51 804.67 1495.70 805.18 1494.45 805.87
  Q 1475.85 816.11 1455.84 823.04
  C 1440.84 828.24 1424.60 830.74 1408.25 833.52
  C 1396.39 835.54 1386.63 835.79 1373.58 834.95
  C 1326.87 831.97 1290.27 829.41 1247.09 819.14
  C 1186.44 804.71 1136.54 792.01 1080.00 773.03
  C 1070.65 769.89 1060.20 765.40 1051.25 762.26
  Q 1029.62 754.68 1008.19 746.56
  C 988.03 738.91 961.04 731.53 938.66 721.83
  Q 917.68 712.74 896.54 704.04
  C 881.91 698.02 867.77 691.27 853.42 684.80
  Q 844.89 680.95 835.55 675.89
  Q 809.34 661.70 782.21 649.32
  C 770.76 644.10 760.95 638.16 747.21 631.71
  Q 741.19 628.88 737.85 627.13
  Q 678.49 596.09 650.18 579.58
  Q 636.42 571.56 607.09 551.80
  C 585.25 537.08 564.83 521.43 539.71 502.28
  Q 520.05 487.29 507.48 475.27
  Z"
/>
<path fill="#000000" d="
  M 1193.44 768.19
  Q 1192.46 767.94 1193.10 767.15
  C 1215.41 739.73 1237.35 712.04 1259.22 684.27
  C 1272.50 667.40 1287.20 651.45 1301.27 635.23
  C 1305.86 629.93 1311.34 626.63 1315.61 620.54
  Q 1318.55 616.34 1320.48 614.50
  C 1323.60 611.55 1326.79 609.56 1329.30 606.01
  C 1344.98 583.86 1366.99 565.74 1386.02 546.94
  Q 1440.25 493.36 1501.70 448.22
  C 1507.11 444.24 1516.07 439.50 1518.29 450.24
  Q 1524.94 482.34 1526.54 515.05
  C 1526.83 521.01 1527.78 532.21 1527.62 540.84
  Q 1527.41 552.20 1527.48 555.79
  C 1527.77 570.32 1526.79 580.85 1524.57 597.26
  C 1524.11 600.73 1523.77 608.37 1522.47 613.81
  Q 1521.44 618.14 1521.06 621.28
  C 1520.07 629.41 1517.54 638.93 1516.36 645.25
  C 1513.97 657.99 1511.71 671.03 1507.97 683.10
  C 1498.44 713.80 1487.44 739.54 1474.56 767.60
  C 1470.14 777.25 1464.95 786.36 1459.76 795.57
  Q 1459.51 796.01 1459.00 795.92
  C 1456.53 795.44 1454.24 795.11 1451.67 795.48
  Q 1432.42 798.27 1413.11 800.55
  C 1401.93 801.87 1390.07 801.71 1378.50 802.24
  Q 1377.99 802.26 1377.68 801.85
  C 1375.81 799.28 1373.60 796.91 1372.22 794.06
  Q 1360.34 769.49 1346.02 746.28
  C 1337.56 732.58 1327.45 719.36 1317.54 706.46
  Q 1316.00 704.45 1313.00 701.77
  A 1.63 1.62 -48.9 0 0 1310.68 701.93
  C 1309.49 703.34 1307.69 704.49 1306.58 705.91
  Q 1277.96 742.40 1248.80 778.47
  Q 1248.47 778.88 1247.94 778.94
  Q 1245.65 779.20 1242.68 778.85
  Q 1231.41 777.51 1223.08 776.00
  C 1219.35 775.32 1215.53 773.51 1212.25 772.75
  Q 1203.21 770.67 1193.44 768.19
  Z
  M 1451.44 554.13
  Q 1448.15 557.67 1443.88 560.02
  C 1441.23 561.47 1439.63 563.62 1437.51 565.58
  A 1.22 1.22 0.0 0 0 1437.46 567.32
  Q 1438.79 568.73 1439.45 570.90
  C 1444.26 586.88 1449.80 602.60 1454.34 618.58
  C 1455.10 621.27 1455.39 625.19 1456.78 628.33
  C 1459.21 633.82 1459.37 641.20 1460.71 647.19
  C 1461.14 649.10 1462.27 650.20 1464.19 648.94
  Q 1464.88 648.48 1465.13 647.69
  C 1467.15 641.31 1469.19 635.00 1470.39 628.31
  Q 1474.62 604.70 1475.24 596.00
  Q 1476.64 576.33 1477.89 556.65
  C 1478.37 549.01 1477.95 543.02 1476.30 536.11
  A 1.60 1.60 0.0 0 0 1473.87 535.15
  C 1465.74 540.49 1458.14 546.89 1451.44 554.13
  Z
  M 1364.94 640.44
  C 1358.39 647.24 1352.85 651.30 1347.64 658.43
  Q 1347.34 658.83 1347.56 659.28
  Q 1350.64 665.82 1354.89 670.85
  C 1375.62 695.36 1392.54 723.23 1408.42 751.16
  A 2.15 2.15 0.0 0 0 1411.43 751.92
  Q 1412.23 751.42 1412.73 749.99
  C 1413.74 747.10 1414.71 744.37 1414.92 741.24
  C 1416.03 725.36 1417.46 709.89 1415.76 694.00
  C 1414.14 678.80 1412.90 663.20 1410.25 648.45
  C 1407.73 634.43 1405.94 619.62 1398.53 606.95
  A 0.87 0.87 0.0 0 0 1397.11 606.84
  C 1393.54 611.27 1388.78 613.87 1385.21 618.12
  Q 1377.02 627.88 1364.94 640.44
  Z"
/>
<path fill="#000000" d="
  M 287.72 711.41
  A 0.57 0.57 0.0 0 1 287.59 710.35
  Q 315.19 696.13 341.84 679.80
  C 347.54 676.31 350.97 672.49 351.92 665.97
  Q 356.01 638.11 359.54 609.70
  Q 359.85 607.22 361.34 609.23
  Q 361.72 609.76 362.62 611.33
  Q 378.07 638.51 392.43 665.97
  Q 392.88 666.82 393.81 667.07
  C 414.13 672.55 435.28 676.11 455.99 679.82
  Q 459.13 680.39 461.99 681.28
  A 0.35 0.35 0.0 0 1 462.05 681.93
  Q 438.11 694.07 414.55 706.75
  C 410.42 708.97 407.50 711.85 404.01 714.80
  A 1.45 1.42 78.2 0 0 403.56 715.50
  C 399.14 730.88 396.86 746.20 394.91 762.02
  C 394.15 768.27 392.16 777.42 391.93 784.93
  Q 391.84 787.70 390.62 785.21
  C 381.53 766.47 370.72 747.40 360.90 728.33
  Q 360.21 726.99 359.22 725.82
  A 1.62 1.56 -11.8 0 0 358.41 725.31
  C 355.93 724.66 353.74 723.09 351.70 722.39
  C 345.41 720.23 337.59 719.58 332.72 718.70
  Q 322.67 716.88 312.62 715.02
  C 304.50 713.52 295.93 713.37 287.72 711.41
  Z"
/>
<path fill="#000000" d="
  M 664.33 852.33
  Q 664.43 852.07 664.76 850.64
  Q 675.27 804.67 693.49 763.23
  Q 694.84 760.17 698.13 762.03
  Q 718.15 773.38 738.70 783.78
  C 741.99 785.44 742.71 789.05 741.41 792.54
  C 737.64 802.74 733.01 813.53 729.95 823.03
  Q 720.76 851.57 716.08 881.26
  Q 714.71 889.98 716.96 898.51
  C 719.93 909.77 731.94 908.80 740.86 906.35
  C 757.24 901.84 773.27 894.03 787.74 885.23
  Q 824.22 863.03 857.12 836.12
  A 2.51 2.50 -53.1 0 1 859.70 835.75
  C 868.78 839.62 878.34 844.36 886.85 847.91
  Q 1008.98 898.81 1134.13 941.77
  C 1135.75 942.32 1137.79 942.57 1136.72 944.97
  C 1132.00 955.49 1123.93 963.72 1119.24 974.25
  Q 1114.42 985.08 1109.24 995.48
  A 0.52 0.52 0.0 0 0 1109.79 996.23
  C 1112.03 995.89 1114.25 996.13 1116.36 995.63
  C 1147.03 988.32 1176.40 977.25 1205.77 965.95
  C 1207.73 965.19 1210.04 964.48 1212.37 965.30
  Q 1240.13 975.15 1267.89 984.94
  C 1269.24 985.42 1271.48 985.71 1271.98 987.19
  C 1272.91 989.93 1264.97 993.09 1263.10 994.02
  Q 1246.60 1002.19 1229.93 1010.05
  C 1223.01 1013.31 1214.99 1018.20 1208.80 1020.78
  Q 1180.96 1032.43 1157.81 1038.56
  C 1130.11 1045.90 1108.70 1051.61 1082.19 1054.84
  Q 1057.67 1057.82 1049.25 1058.76
  C 1028.63 1061.07 1011.19 1060.88 986.56 1060.18
  C 980.22 1060.00 971.17 1058.84 963.19 1057.59
  C 946.47 1054.97 928.96 1053.50 912.90 1050.47
  Q 856.65 1039.87 803.87 1017.77
  Q 795.54 1014.28 785.74 1009.31
  Q 763.49 998.02 741.46 986.29
  C 736.82 983.83 734.11 979.75 729.31 977.09
  C 709.09 965.87 690.40 954.28 672.91 936.96
  C 658.23 922.43 642.98 908.03 629.26 892.60
  Q 613.61 875.01 598.85 856.66
  C 587.73 842.83 578.49 827.64 568.78 812.83
  Q 564.77 806.73 561.40 799.86
  C 555.23 787.30 548.02 774.18 542.54 762.40
  Q 530.34 736.15 519.82 709.17
  Q 518.29 705.26 517.07 699.63
  C 515.75 693.57 514.45 689.13 511.47 682.99
  Q 508.05 675.91 508.47 667.79
  Q 508.50 667.24 509.04 667.24
  Q 510.56 667.24 512.01 667.99
  Q 540.79 682.93 568.97 699.00
  C 571.39 700.38 574.79 709.64 575.91 712.38
  C 596.48 763.06 625.31 812.07 662.04 852.78
  Q 663.57 854.47 664.33 852.33
  Z
  M 787.90 950.27
  C 792.89 955.11 797.77 957.38 803.88 960.56
  C 813.37 965.51 823.52 969.56 833.35 973.79
  C 878.45 993.18 928.47 1003.90 977.41 1007.00
  Q 978.65 1007.08 982.47 1007.03
  C 986.66 1006.99 991.44 1008.03 995.03 1008.02
  Q 1013.64 1007.98 1032.27 1008.00
  C 1040.81 1008.02 1044.32 1004.73 1048.17 997.06
  Q 1054.64 984.17 1061.25 971.34
  C 1064.16 965.69 1070.57 955.48 1073.96 946.59
  Q 1074.13 946.16 1073.72 945.95
  C 1049.55 933.26 1022.74 927.58 997.46 917.64
  C 968.04 906.09 937.54 893.05 910.35 876.86
  C 908.47 875.74 906.23 873.69 903.81 872.52
  Q 903.34 872.29 902.88 872.53
  Q 899.35 874.36 898.52 875.01
  Q 858.02 907.39 825.18 927.93
  Q 806.91 939.35 787.28 948.33
  A 0.85 0.85 0.0 0 0 786.94 949.61
  Q 787.09 949.83 787.41 949.96
  Q 787.73 950.10 787.90 950.27
  Z"
/>
<path fill="#000000" d="
  M 418.62 811.23
  A 0.56 0.56 0.0 0 1 418.51 810.16
  Q 436.74 802.59 453.46 791.73
  C 456.72 789.60 457.68 786.63 458.28 782.58
  Q 460.72 766.09 462.38 749.74
  A 0.43 0.43 0.0 0 1 463.16 749.54
  Q 474.01 765.54 482.33 783.03
  A 2.95 2.95 0.0 0 0 483.74 784.41
  Q 487.30 786.06 491.60 786.73
  C 503.35 788.54 514.48 790.56 526.61 790.84
  A 0.33 0.33 0.0 0 1 526.80 791.44
  Q 516.02 799.51 503.95 805.62
  C 499.20 808.03 490.43 812.42 489.50 816.89
  Q 487.72 825.47 486.39 834.14
  C 485.29 841.36 482.84 848.79 481.58 856.31
  Q 481.49 856.82 481.29 856.90
  A 0.74 0.74 0.0 0 1 480.33 856.45
  Q 473.41 836.02 460.40 818.85
  C 459.86 818.14 459.35 817.76 458.40 817.64
  Q 438.42 815.26 418.62 811.23
  Z"
/>
<path fill="#000000" d="
  M 309.37 870.22
  C 300.14 869.19 291.07 867.76 282.12 866.16
  A 0.73 0.72 -55.2 0 1 281.88 864.82
  Q 298.02 855.38 313.53 846.26
  C 317.26 844.07 318.15 841.74 318.72 837.28
  Q 320.66 822.03 323.38 806.17
  A 0.55 0.55 0.0 0 1 324.36 805.92
  Q 334.38 818.62 341.13 833.66
  C 344.00 840.04 347.67 839.80 353.68 841.03
  C 363.41 843.02 373.54 844.41 383.02 847.45
  A 0.77 0.77 0.0 0 1 383.11 848.88
  C 378.24 851.15 373.45 854.72 369.47 856.82
  C 359.97 861.86 350.49 864.40 349.04 876.60
  Q 347.18 892.33 343.42 907.95
  A 0.61 0.60 -50.3 0 1 342.28 908.06
  Q 337.18 896.56 329.94 886.02
  C 327.49 882.45 326.38 877.71 323.48 874.83
  C 320.11 871.48 314.39 870.77 309.37 870.22
  Z"
/>
</svg>
