<?xml version="1.0" encoding="UTF-8" standalone="no"?>
<!DOCTYPE svg PUBLIC "-//W3C//DTD SVG 1.1//EN" "http://www.w3.org/Graphics/SVG/1.1/DTD/svg11.dtd">
<svg xmlns="http://www.w3.org/2000/svg" version="1.1" viewBox="0.00 0.00 1920.00 1080.00">
<path fill="#ffffff" d="
  M 547.58 456.06
  C 534.65 445.50 521.49 432.66 511.78 419.21
  C 508.15 414.19 510.34 404.79 512.07 399.10
  Q 526.64 351.19 547.92 307.93
  C 557.72 288.00 570.55 268.59 582.45 249.20
  Q 588.81 238.84 593.40 232.48
  C 605.52 215.69 619.78 200.79 632.84 185.82
  Q 635.16 183.16 637.21 181.20
  C 649.96 168.98 663.52 157.63 677.09 146.34
  Q 715.12 114.71 758.20 90.54
  C 770.27 83.77 784.22 76.87 797.34 70.19
  C 813.15 62.13 830.50 56.63 847.15 50.53
  C 852.75 48.48 862.68 43.99 870.75 42.22
  Q 920.69 31.29 947.82 27.08
  Q 962.19 24.85 987.66 23.95
  Q 990.85 23.84 992.11 24.68
  C 996.02 27.28 990.32 40.44 988.46 44.60
  C 979.54 64.55 970.72 84.96 960.49 104.27
  Q 939.74 143.47 917.04 181.58
  C 906.44 199.38 895.05 216.74 884.04 234.30
  C 881.31 238.66 877.23 243.52 874.24 248.11
  Q 857.05 274.38 838.32 299.56
  C 828.46 312.80 819.29 327.08 808.23 340.98
  Q 775.94 381.57 742.85 423.23
  Q 742.21 424.04 742.87 424.83
  C 770.22 456.93 801.21 486.18 831.21 515.79
  Q 833.72 518.28 837.15 519.17
  Q 837.64 519.30 838.07 519.03
  Q 839.91 517.87 840.86 516.60
  Q 869.84 477.59 877.95 468.44
  C 894.38 449.88 909.57 430.61 924.93 411.18
  C 931.99 402.25 941.70 392.35 948.16 384.75
  C 954.54 377.26 960.60 369.63 967.32 362.43
  C 977.84 351.17 987.95 339.25 998.52 328.38
  C 1017.87 308.49 1033.29 291.99 1056.72 268.97
  C 1062.53 263.26 1069.29 257.69 1073.98 253.21
  Q 1085.74 241.97 1097.80 231.04
  C 1110.54 219.49 1131.98 213.29 1146.83 224.88
  Q 1154.02 230.49 1161.39 235.80
  C 1165.90 239.04 1169.39 242.80 1173.57 246.16
  Q 1213.98 278.55 1254.65 310.60
  C 1264.44 318.32 1275.45 325.10 1284.53 333.55
  C 1291.12 339.69 1298.57 344.77 1300.91 354.15
  C 1305.24 371.45 1293.06 389.76 1283.95 404.90
  Q 1259.26 445.93 1233.79 486.48
  C 1223.70 502.54 1212.41 518.05 1202.58 534.55
  C 1192.08 552.17 1176.52 566.71 1165.37 583.48
  C 1157.01 596.05 1148.66 609.48 1140.08 621.06
  Q 1121.95 645.52 1101.08 667.69
  C 1089.50 679.99 1080.52 691.12 1071.47 704.00
  Q 1071.16 704.44 1071.58 704.76
  Q 1092.20 720.69 1112.76 736.49
  Q 1115.74 738.78 1123.78 741.24
  Q 1124.50 741.46 1123.78 741.71
  Q 1123.28 741.88 1122.75 741.74
  C 1116.56 740.14 1110.18 739.83 1103.93 738.52
  Q 1098.80 737.45 1091.18 735.06
  C 1042.35 719.77 993.51 702.34 947.53 681.27
  C 939.40 677.55 932.62 673.02 924.91 666.93
  C 899.74 647.04 873.20 627.63 849.98 605.51
  C 849.03 604.59 847.89 604.39 846.75 603.74
  Q 846.28 603.47 845.95 603.90
  C 840.03 611.60 836.56 620.29 830.45 627.69
  C 829.35 629.02 827.84 629.32 826.20 628.53
  Q 804.20 617.88 783.68 605.49
  A 1.98 1.98 0.0 0 1 782.88 603.02
  C 785.41 597.05 788.61 588.72 792.96 584.03
  C 794.67 582.19 796.53 580.68 797.73 578.46
  Q 800.81 572.77 803.75 567.01
  A 3.04 3.03 42.5 0 0 803.62 564.04
  C 799.02 556.62 794.24 552.44 785.49 546.85
  Q 785.06 546.58 784.87 546.11
  Q 783.80 543.53 782.28 541.97
  C 774.87 534.37 765.37 527.19 757.82 518.66
  Q 754.23 514.59 750.77 511.21
  C 735.91 496.63 722.34 481.05 707.84 466.17
  Q 707.54 465.86 707.13 466.00
  C 698.62 468.91 694.50 477.29 689.63 482.62
  Q 674.91 498.74 647.89 526.70
  A 0.87 0.85 32.3 0 1 646.97 526.90
  Q 644.76 526.06 642.52 524.50
  Q 600.60 495.30 575.91 477.60
  C 570.73 473.89 567.73 469.47 565.93 462.95
  Q 561.88 448.21 558.61 433.28
  Q 558.46 432.57 558.21 432.24
  A 0.77 0.77 0.0 0 0 556.83 432.53
  C 555.82 437.37 553.15 452.45 550.07 455.87
  Q 548.91 457.16 547.58 456.06
  Z
  M 884.53 128.94
  C 886.46 129.03 888.01 127.64 888.97 126.11
  Q 899.41 109.59 908.09 92.08
  Q 909.15 89.94 909.24 88.05
  Q 909.29 87.20 908.45 87.39
  C 871.40 95.79 836.58 108.13 802.28 124.79
  A 1.15 1.11 -86.3 0 0 801.83 125.20
  Q 800.46 127.40 803.26 127.11
  Q 809.06 126.52 814.86 126.15
  C 824.28 125.55 834.31 126.45 843.96 126.66
  C 857.51 126.97 870.99 128.28 884.53 128.94
  Z
  M 819.72 239.78
  Q 824.90 228.21 832.52 218.77
  C 833.94 217.00 834.48 213.48 836.31 211.06
  C 844.04 200.79 850.62 192.77 855.25 181.02
  A 0.71 0.70 -70.7 0 0 854.80 180.08
  Q 850.72 178.86 847.01 178.69
  C 802.42 176.62 756.07 182.11 714.42 198.86
  Q 713.66 199.16 714.37 199.56
  Q 717.84 201.46 723.51 203.24
  Q 743.78 209.60 764.03 216.03
  Q 769.66 217.81 775.07 220.17
  Q 796.96 229.73 818.80 240.12
  A 0.69 0.68 -65.1 0 0 819.72 239.78
  Z
  M 707.43 380.45
  Q 707.79 380.79 708.16 380.47
  Q 713.29 375.95 717.64 370.43
  Q 749.20 330.39 781.25 290.75
  Q 783.40 288.09 784.31 285.98
  Q 785.06 284.22 783.34 283.37
  Q 745.16 264.54 704.66 252.77
  C 693.23 249.45 646.05 238.76 642.42 256.51
  C 640.35 266.60 643.58 275.25 647.97 286.11
  C 660.00 315.85 677.21 341.84 695.74 367.20
  Q 700.95 374.32 707.43 380.45
  Z
  M 1109.55 290.22
  C 1105.27 294.10 1101.12 298.54 1097.09 302.19
  Q 1073.03 323.97 1051.11 347.89
  C 1044.49 355.11 1036.77 360.76 1030.62 368.87
  A 0.67 0.67 0.0 0 0 1030.70 369.77
  C 1035.59 374.28 1040.41 379.64 1046.84 381.94
  C 1051.59 383.64 1054.51 385.85 1058.21 388.79
  Q 1095.72 418.66 1133.28 448.46
  Q 1144.90 457.68 1155.91 467.59
  C 1157.24 468.78 1157.92 470.06 1158.71 471.63
  Q 1158.93 472.07 1159.39 472.24
  L 1165.77 474.59
  A 0.98 0.96 83.0 0 1 1166.26 474.98
  L 1171.28 482.68
  Q 1171.69 483.33 1172.06 482.65
  Q 1178.83 470.10 1187.95 459.16
  Q 1189.60 457.17 1190.82 454.42
  C 1193.53 448.29 1198.12 443.58 1201.17 438.39
  Q 1226.04 395.93 1233.57 383.82
  C 1235.92 380.05 1238.37 375.73 1239.26 372.43
  C 1240.75 366.85 1228.65 360.94 1225.79 356.71
  Q 1222.64 352.03 1218.20 348.55
  C 1196.44 331.49 1175.06 313.72 1153.04 297.04
  C 1144.61 290.65 1133.93 284.80 1124.74 277.90
  Q 1124.29 277.56 1123.82 277.87
  C 1118.40 281.50 1113.18 286.92 1109.55 290.22
  Z
  M 609.28 331.54
  C 604.96 342.41 604.49 358.12 604.93 369.68
  C 606.28 405.17 610.33 441.41 621.94 475.15
  Q 622.13 475.70 622.63 475.39
  C 630.03 470.86 637.09 461.61 642.53 455.52
  C 652.78 444.03 660.59 435.70 669.87 425.84
  A 2.92 2.91 48.2 0 0 670.07 422.10
  Q 657.43 405.29 645.53 389.21
  Q 639.44 380.97 620.12 348.85
  Q 615.62 341.36 611.56 333.63
  Q 610.85 332.28 610.09 331.41
  A 0.48 0.48 0.0 0 0 609.28 331.54
  Z
  M 1042.98 650.73
  C 1049.14 643.63 1060.59 632.05 1068.83 621.33
  Q 1076.60 611.21 1102.45 579.20
  C 1105.88 574.95 1110.07 571.16 1112.98 566.83
  C 1116.54 561.51 1119.92 555.96 1123.72 551.02
  Q 1131.66 540.72 1139.93 530.68
  Q 1140.64 529.83 1141.30 528.34
  Q 1141.49 527.90 1141.34 527.46
  Q 1140.12 523.75 1137.95 522.05
  C 1128.59 514.69 1119.83 507.70 1110.80 499.13
  Q 1101.46 490.28 1097.02 486.73
  Q 1070.42 465.43 1043.70 444.29
  Q 1037.44 439.34 1022.31 429.94
  Q 1015.94 425.99 1002.87 414.63
  C 992.60 405.69 988.57 413.95 983.85 421.94
  Q 983.71 422.18 983.43 422.22
  Q 983.27 422.24 983.13 422.27
  Q 982.89 422.33 982.69 422.57
  C 980.20 425.62 978.03 429.10 975.46 431.88
  Q 959.33 449.34 944.31 467.76
  C 933.99 480.42 924.25 494.72 914.16 508.14
  Q 909.86 513.86 903.53 523.36
  C 895.90 534.81 887.24 545.58 879.27 556.64
  A 1.24 1.24 0.0 0 0 879.57 558.39
  Q 896.14 569.94 910.72 584.15
  Q 917.10 590.37 922.16 594.41
  Q 951.79 618.13 981.56 641.68
  Q 985.72 644.98 991.04 647.97
  C 1002.65 654.51 1013.12 663.67 1023.50 671.87
  A 1.54 1.54 0.0 0 0 1025.66 671.62
  Q 1034.06 661.03 1042.98 650.73
  Z"
/>
<path fill="#ffffff" d="
  M 1308.13 56.42
  Q 1308.25 56.01 1308.26 55.70
  A 0.27 0.26 -54.7 0 1 1308.77 55.61
  C 1310.64 60.54 1312.45 65.48 1314.77 70.26
  Q 1328.74 99.06 1342.78 127.84
  Q 1343.04 128.36 1343.61 128.48
  L 1431.57 146.40
  Q 1433.56 146.80 1431.89 147.97
  Q 1430.38 149.02 1427.78 150.25
  C 1404.30 161.40 1380.79 172.20 1358.13 184.80
  A 2.36 2.34 81.5 0 0 1356.98 186.37
  L 1341.53 263.00
  A 0.39 0.39 0.0 0 1 1340.81 263.13
  Q 1322.83 232.81 1304.98 202.51
  C 1301.61 196.79 1298.40 192.58 1291.19 191.47
  Q 1258.15 186.38 1224.87 180.43
  Q 1224.05 180.29 1224.52 179.61
  Q 1224.72 179.33 1225.38 178.93
  Q 1256.13 160.26 1286.95 141.72
  C 1290.27 139.72 1292.06 136.17 1293.19 132.15
  C 1298.83 111.99 1301.40 90.44 1305.02 69.81
  Q 1306.21 63.03 1308.13 56.42
  Z"
/>
<path fill="#ffffff" d="
  M 1743.51 738.07
  Q 1725.26 721.26 1708.67 702.81
  Q 1708.40 702.52 1708.65 702.21
  Q 1708.76 702.08 1708.85 702.04
  Q 1708.95 702.00 1709.08 702.11
  Q 1718.77 709.81 1728.22 717.82
  C 1729.64 719.02 1731.56 719.78 1732.92 720.82
  C 1746.18 730.97 1758.41 742.21 1770.67 753.19
  C 1816.34 794.12 1859.91 841.60 1883.28 897.96
  C 1890.24 914.74 1893.56 933.87 1893.52 950.50
  C 1893.48 967.65 1882.80 986.67 1871.29 998.81
  C 1869.89 1000.28 1866.14 1004.22 1864.10 1005.60
  Q 1832.95 1026.73 1796.01 1034.29
  C 1781.68 1037.22 1768.17 1039.31 1752.99 1039.72
  C 1733.99 1040.24 1715.00 1040.87 1696.01 1041.83
  Q 1672.61 1043.01 1649.26 1040.46
  C 1618.88 1037.13 1590.05 1035.05 1558.44 1029.81
  C 1507.35 1021.33 1468.11 1015.00 1423.30 1003.79
  Q 1352.34 986.06 1332.48 980.06
  Q 1303.26 971.23 1273.68 963.71
  Q 1262.44 960.85 1254.38 958.50
  Q 1146.66 927.13 1042.01 886.67
  Q 1032.88 883.14 1023.26 879.74
  C 985.44 866.39 945.76 851.63 908.58 835.13
  C 885.18 824.74 861.27 815.67 837.97 805.04
  Q 792.71 784.40 747.42 763.82
  Q 738.61 759.81 729.40 755.18
  C 706.06 743.44 682.29 732.44 659.14 720.38
  Q 620.63 700.33 582.07 680.41
  Q 573.35 675.91 564.44 670.98
  C 536.55 655.57 508.22 640.85 480.53 625.12
  C 399.63 579.16 321.27 528.70 246.01 473.99
  Q 228.98 461.61 216.20 451.33
  Q 159.86 406.03 118.95 366.30
  Q 104.27 352.05 82.62 327.23
  C 65.27 307.35 51.30 285.88 37.51 261.53
  C 26.68 242.40 19.62 219.93 19.98 197.99
  C 20.33 176.63 33.29 151.07 51.24 139.03
  Q 60.76 132.64 63.76 130.76
  Q 86.64 116.43 113.22 111.32
  C 130.48 108.00 147.67 104.07 165.26 103.05
  C 178.51 102.28 192.75 102.49 206.51 102.23
  C 237.93 101.65 269.67 103.14 300.85 107.12
  C 320.51 109.62 340.33 111.62 359.87 114.83
  Q 423.91 125.36 487.24 139.55
  C 501.95 142.85 517.65 147.50 532.99 151.05
  C 555.98 156.38 579.38 163.07 600.49 167.77
  Q 603.85 168.51 605.90 170.39
  A 1.16 1.14 23.7 0 1 606.26 171.29
  C 605.86 177.13 594.85 187.27 590.46 191.04
  C 589.10 192.22 588.30 192.06 586.67 191.62
  C 574.90 188.46 562.31 184.60 552.64 182.02
  C 517.11 172.54 485.98 165.91 452.51 158.40
  C 439.35 155.45 425.05 153.11 411.34 150.27
  C 389.92 145.84 365.25 141.53 347.82 139.40
  C 328.48 137.04 309.12 134.35 289.72 132.67
  Q 254.65 129.63 243.32 128.90
  Q 200.66 126.16 158.14 129.89
  C 146.67 130.90 134.52 132.86 122.74 134.68
  Q 105.00 137.42 92.83 143.09
  Q 74.63 151.58 67.22 156.98
  Q 62.56 160.37 54.72 170.72
  C 44.78 183.87 42.52 207.75 47.43 223.02
  Q 57.46 254.28 78.53 283.46
  C 83.46 290.28 89.63 297.14 95.40 303.83
  C 99.47 308.56 101.83 314.86 107.47 318.22
  C 114.58 322.45 118.27 331.44 124.29 337.28
  Q 159.43 371.32 196.52 403.24
  C 201.14 407.21 208.63 411.69 214.36 416.78
  C 219.52 421.35 226.87 426.56 230.57 429.59
  C 244.77 441.23 260.10 452.73 274.88 463.21
  Q 331.55 503.41 354.25 518.50
  Q 388.83 541.48 444.93 574.65
  C 464.36 586.14 483.66 596.59 503.92 609.09
  Q 506.05 610.41 514.00 614.69
  Q 565.06 642.17 616.19 669.54
  C 639.41 681.97 663.09 693.33 686.17 706.08
  C 696.90 712.01 710.04 718.62 722.69 724.28
  Q 797.37 757.72 872.17 790.90
  Q 881.34 794.97 890.58 798.69
  C 946.85 821.32 995.77 841.31 1049.29 860.63
  C 1072.96 869.18 1096.10 879.21 1119.97 887.21
  Q 1159.71 900.54 1199.91 912.42
  Q 1209.13 915.14 1219.02 918.30
  C 1238.63 924.56 1258.38 930.21 1278.08 936.15
  C 1341.48 955.28 1401.02 971.06 1463.22 984.63
  Q 1473.27 986.83 1482.85 988.49
  Q 1528.14 996.34 1573.73 1002.26
  C 1585.67 1003.81 1598.70 1004.75 1611.19 1006.00
  C 1616.97 1006.58 1623.89 1006.55 1628.75 1007.06
  Q 1643.16 1008.55 1652.49 1008.79
  Q 1702.02 1010.08 1731.50 1009.47
  Q 1739.92 1009.30 1755.28 1006.96
  Q 1781.16 1003.03 1790.49 1001.22
  C 1812.24 996.99 1834.18 986.66 1850.78 972.29
  C 1859.11 965.08 1864.50 952.20 1867.64 941.64
  C 1872.42 925.54 1867.73 911.15 1862.81 895.76
  Q 1856.95 877.44 1845.05 858.70
  C 1826.76 829.89 1808.99 806.55 1787.18 782.33
  C 1781.34 775.85 1772.97 768.69 1766.78 760.72
  Q 1763.84 756.94 1751.79 746.47
  C 1749.21 744.23 1746.31 740.64 1743.51 738.07
  Z"
/>
<path fill="#ffffff" d="
  M 235.69 383.81
  C 212.40 359.87 193.49 331.97 178.63 302.35
  C 172.54 290.21 171.18 278.05 169.98 264.88
  Q 167.48 237.51 185.68 216.18
  C 194.63 205.69 208.79 198.77 221.10 193.03
  Q 229.85 188.96 239.86 186.23
  C 253.29 182.58 266.95 179.47 280.92 178.48
  C 294.09 177.55 305.36 175.81 317.62 174.65
  C 325.90 173.87 332.34 176.42 340.26 176.60
  C 348.45 176.79 356.33 175.38 364.59 175.77
  C 373.27 176.18 380.11 178.68 389.17 177.72
  C 395.19 177.08 401.36 179.58 408.47 180.27
  C 440.86 183.41 467.14 188.55 502.83 194.85
  C 522.64 198.34 542.33 203.01 562.01 207.20
  Q 566.72 208.21 571.34 209.59
  Q 571.92 209.77 571.59 210.28
  Q 567.00 217.42 559.87 224.91
  Q 551.80 233.38 540.41 229.93
  Q 521.24 224.11 506.51 221.49
  C 496.47 219.71 479.99 217.69 466.82 215.27
  C 458.30 213.70 450.52 212.06 441.33 210.97
  C 435.88 210.32 430.17 209.17 425.12 208.65
  C 414.17 207.52 404.32 206.84 392.34 205.36
  C 382.41 204.14 372.09 204.55 362.34 202.69
  Q 354.51 201.19 346.50 201.48
  Q 320.22 202.44 293.94 203.46
  C 268.65 204.45 246.40 208.35 222.97 220.01
  C 213.16 224.90 203.31 235.41 199.13 245.56
  C 194.46 256.93 193.90 268.51 197.98 280.20
  C 200.49 287.40 202.55 295.18 205.74 301.59
  C 213.02 316.23 223.77 330.27 233.65 342.79
  Q 239.19 349.80 246.71 357.92
  C 299.16 414.49 358.37 461.46 422.84 504.96
  C 450.00 523.28 477.36 541.89 505.38 558.85
  Q 574.77 600.84 598.73 614.03
  C 622.56 627.15 646.35 640.92 670.73 652.97
  Q 721.59 678.10 739.58 687.41
  C 759.15 697.54 776.64 706.13 795.79 714.03
  Q 823.70 725.53 851.29 737.74
  C 867.55 744.94 886.95 755.66 899.66 761.11
  Q 941.68 779.13 984.21 795.88
  Q 993.09 799.38 1003.05 802.61
  C 1044.66 816.12 1085.82 831.28 1127.12 845.86
  Q 1136.65 849.22 1146.12 852.11
  Q 1199.27 868.31 1252.63 883.76
  C 1275.80 890.46 1299.62 895.57 1323.06 901.32
  C 1336.12 904.52 1349.79 908.52 1363.18 912.08
  C 1373.25 914.76 1383.90 915.53 1394.10 918.00
  C 1418.12 923.79 1442.77 926.54 1467.09 930.79
  C 1488.83 934.58 1510.76 937.68 1532.80 939.04
  Q 1562.77 940.88 1586.07 941.91
  Q 1598.59 942.46 1612.25 941.00
  C 1628.83 939.24 1653.05 936.92 1674.03 930.08
  C 1692.17 924.16 1707.90 913.80 1715.47 895.74
  C 1730.36 860.21 1702.20 810.64 1680.65 783.19
  C 1657.46 753.66 1632.47 724.86 1604.90 700.11
  C 1601.99 697.51 1599.62 694.48 1596.63 692.04
  Q 1590.27 686.85 1584.32 681.18
  Q 1583.59 680.48 1584.56 680.76
  Q 1586.66 681.38 1588.46 682.53
  C 1597.05 687.99 1606.59 692.85 1614.11 698.93
  C 1635.63 716.32 1657.54 736.12 1674.19 754.05
  C 1696.69 778.29 1720.42 808.71 1735.51 840.86
  C 1747.15 865.67 1747.48 903.86 1727.09 925.59
  C 1708.33 945.59 1681.81 955.40 1655.32 962.15
  Q 1635.28 967.25 1620.00 966.97
  C 1604.13 966.68 1589.59 968.14 1574.44 967.32
  C 1569.42 967.05 1564.46 966.58 1559.41 966.66
  Q 1541.28 966.94 1528.81 965.45
  C 1471.47 958.61 1424.81 952.01 1371.99 940.30
  Q 1324.35 929.74 1248.91 909.62
  Q 1239.31 907.06 1229.68 904.10
  C 1181.35 889.19 1125.40 872.53 1071.12 853.21
  C 1000.69 828.14 923.18 797.84 854.04 766.69
  C 837.45 759.22 820.21 751.97 803.55 743.97
  C 754.79 720.58 706.13 697.23 657.86 672.83
  Q 648.90 668.30 640.17 663.50
  C 571.23 625.58 510.05 591.01 447.45 550.80
  C 428.07 538.35 408.39 526.23 389.37 513.26
  Q 336.67 477.32 289.41 434.48
  Q 285.35 430.80 274.48 421.17
  Q 256.70 405.42 235.69 383.81
  Z"
/>
<path fill="#ffffff" d="
  M 413.01 458.98
  C 395.94 444.55 374.26 422.94 359.40 405.84
  C 341.06 384.75 324.90 360.33 318.42 332.57
  C 313.43 311.18 323.32 288.95 339.83 275.73
  C 357.44 261.62 384.18 255.05 406.08 252.15
  C 416.71 250.75 427.60 249.15 438.03 249.10
  C 449.56 249.04 460.81 250.14 471.93 250.55
  C 492.15 251.30 512.39 253.41 532.73 255.38
  Q 534.66 255.57 534.20 257.45
  C 533.12 261.83 527.47 268.43 524.84 271.46
  C 519.99 277.06 513.93 276.43 507.23 276.14
  Q 463.55 274.22 433.75 274.47
  Q 408.42 274.69 384.94 279.91
  C 377.43 281.58 368.33 283.98 361.89 287.89
  C 349.24 295.56 338.27 310.48 340.86 326.16
  C 343.25 340.64 348.36 352.08 356.95 364.86
  C 382.62 403.05 412.18 427.55 450.56 462.44
  Q 451.75 463.52 456.38 465.59
  C 461.38 467.81 463.35 471.37 467.44 474.42
  C 501.57 499.88 541.33 528.55 578.20 550.53
  Q 642.89 589.09 664.93 601.08
  C 699.38 619.80 733.61 639.68 769.37 655.82
  Q 801.24 670.20 832.53 685.81
  C 858.46 698.74 885.09 709.68 911.24 721.73
  C 940.07 735.01 969.92 745.77 999.59 757.00
  C 1011.80 761.62 1026.23 767.82 1039.74 772.77
  Q 1104.53 796.50 1171.31 813.76
  Q 1180.95 816.26 1190.57 819.13
  C 1220.11 827.94 1247.04 834.45 1279.02 842.14
  C 1324.20 853.00 1370.66 860.65 1418.51 866.48
  C 1441.42 869.27 1464.47 868.63 1487.49 868.20
  Q 1517.22 867.65 1545.21 857.75
  C 1559.41 852.73 1568.84 842.87 1574.61 829.32
  C 1576.17 825.67 1576.59 822.40 1576.34 818.15
  C 1575.70 807.16 1575.64 794.18 1570.42 783.15
  C 1563.86 769.30 1556.57 754.07 1547.09 742.01
  Q 1536.43 728.43 1527.50 713.04
  Q 1526.85 711.93 1527.84 712.76
  C 1548.70 730.41 1565.84 751.71 1579.55 775.26
  C 1586.27 786.81 1590.00 794.67 1592.93 806.77
  C 1595.72 818.35 1596.88 828.50 1592.83 839.75
  C 1587.27 855.21 1577.27 866.04 1562.77 874.28
  Q 1541.38 886.43 1516.26 890.01
  Q 1477.99 895.45 1440.51 892.81
  C 1401.33 890.06 1374.04 888.71 1339.26 882.69
  C 1307.01 877.11 1274.57 870.50 1243.05 861.64
  C 1184.99 845.32 1127.36 827.42 1070.40 807.60
  C 1031.98 794.23 994.27 782.18 952.93 765.04
  Q 896.05 741.45 844.95 717.78
  C 803.88 698.76 768.42 684.24 727.97 663.74
  C 720.89 660.16 711.88 656.50 704.28 652.30
  C 680.54 639.16 656.37 626.54 632.89 612.96
  Q 586.37 586.04 540.91 557.35
  Q 523.41 546.30 506.80 533.94
  Q 459.15 498.47 447.81 488.69
  Q 430.48 473.75 413.01 458.98
  Z"
/>
<path fill="#ffffff" d="
  M 538.17 501.09
  C 511.76 480.86 491.10 460.11 469.21 434.04
  C 455.55 417.77 445.80 404.75 440.72 385.04
  Q 437.87 373.96 438.53 365.26
  C 440.97 333.00 476.34 317.58 503.08 310.62
  Q 505.24 310.05 506.24 310.03
  Q 508.69 309.96 507.75 312.22
  C 504.34 320.41 500.05 324.36 491.90 328.86
  Q 477.25 336.95 465.35 348.87
  C 451.06 363.17 458.58 384.66 467.43 399.47
  C 470.94 405.34 477.91 413.39 482.33 421.07
  C 486.50 428.32 493.70 433.02 498.87 439.59
  Q 501.79 443.30 503.83 445.17
  Q 546.23 484.05 582.04 510.22
  Q 604.53 526.66 642.99 551.21
  Q 651.22 556.46 660.13 561.52
  Q 730.05 601.19 800.97 639.03
  Q 809.67 643.67 818.87 647.90
  C 834.69 655.17 850.49 662.65 866.43 669.49
  Q 907.10 686.94 947.97 703.92
  C 971.60 713.75 994.61 725.64 1018.83 733.88
  C 1036.04 739.73 1053.59 744.90 1070.66 750.79
  Q 1123.95 769.15 1177.92 785.40
  C 1197.74 791.37 1217.97 796.28 1237.93 801.77
  C 1283.62 814.33 1329.77 819.08 1377.69 821.55
  Q 1393.33 822.35 1407.48 820.37
  Q 1438.47 816.02 1468.97 809.05
  C 1479.42 806.66 1489.18 805.07 1499.39 803.30
  A 0.03 0.03 0.0 0 1 1499.41 803.36
  Q 1478.53 814.95 1456.01 823.04
  C 1442.46 827.92 1425.01 830.63 1409.10 833.38
  C 1397.58 835.38 1387.55 835.77 1374.95 834.96
  C 1326.97 831.86 1291.54 829.62 1247.95 819.30
  C 1189.95 805.58 1140.18 793.07 1086.48 775.16
  C 1051.23 763.40 1016.87 748.90 981.50 737.41
  Q 951.70 727.73 922.98 715.21
  Q 912.48 710.63 904.56 707.38
  C 878.83 696.80 853.21 685.40 828.66 672.28
  C 803.63 658.90 777.65 648.16 752.64 634.19
  C 748.92 632.12 744.41 630.73 740.41 628.61
  Q 703.08 608.87 666.07 588.53
  C 619.13 562.75 580.53 533.53 538.17 501.09
  Z"
/>
<path fill="#ffffff" d="
  M 1388.31 544.66
  Q 1439.10 495.03 1499.70 449.68
  Q 1506.27 444.77 1512.91 443.26
  A 1.19 1.18 -31.2 0 1 1513.91 443.50
  Q 1517.55 446.47 1518.38 450.67
  C 1524.17 479.77 1525.78 502.73 1527.32 529.34
  C 1527.82 537.96 1527.12 546.34 1527.43 554.89
  C 1528.09 572.93 1525.51 587.45 1523.90 603.97
  Q 1523.53 607.73 1522.17 614.29
  C 1521.22 618.92 1520.92 623.82 1519.96 628.11
  C 1514.88 650.69 1512.23 671.28 1504.85 692.36
  C 1501.35 702.36 1498.15 712.93 1494.34 722.35
  C 1483.87 748.16 1473.33 772.44 1459.72 795.35
  Q 1459.44 795.83 1458.88 795.73
  C 1456.33 795.28 1454.27 795.10 1451.66 795.45
  Q 1432.95 797.97 1414.24 800.47
  Q 1403.68 801.87 1378.49 801.95
  Q 1378.01 801.95 1377.70 801.59
  Q 1373.86 797.28 1372.73 794.98
  Q 1363.88 776.97 1353.99 759.51
  C 1343.21 740.47 1330.38 723.20 1317.13 705.85
  Q 1315.09 703.19 1312.31 701.28
  Q 1311.91 701.01 1311.52 701.30
  Q 1308.05 703.89 1306.77 705.53
  C 1287.70 729.82 1268.91 754.59 1248.65 777.90
  Q 1247.43 779.30 1245.48 779.13
  Q 1237.40 778.38 1229.40 777.06
  C 1217.98 775.18 1205.44 770.77 1193.25 768.22
  A 0.57 0.57 0.0 0 1 1192.94 767.29
  Q 1197.40 762.25 1201.78 756.77
  Q 1230.07 721.32 1258.12 685.68
  C 1271.62 668.52 1286.46 652.26 1300.88 635.87
  Q 1305.09 631.10 1310.03 627.10
  C 1315.27 622.87 1317.61 616.50 1323.39 612.10
  Q 1327.05 609.31 1327.96 607.96
  Q 1333.78 599.38 1342.40 590.14
  Q 1358.55 572.82 1373.84 558.46
  Q 1382.69 550.15 1388.31 544.66
  Z
  M 1462.17 649.48
  L 1463.73 649.51
  A 0.93 0.93 0.0 0 0 1464.62 648.89
  C 1474.76 620.35 1475.97 586.03 1478.08 554.31
  C 1478.35 550.31 1478.77 538.40 1475.31 534.69
  A 0.68 0.67 51.0 0 0 1474.44 534.59
  Q 1462.52 542.79 1453.45 551.46
  Q 1452.02 552.83 1450.72 555.43
  A 1.76 1.71 -0.4 0 1 1449.93 556.21
  Q 1442.60 559.74 1437.28 565.83
  Q 1436.90 566.26 1437.17 566.78
  C 1441.30 574.51 1443.26 583.81 1446.35 592.70
  C 1449.99 603.16 1453.37 613.81 1455.58 624.67
  C 1456.28 628.16 1458.16 630.66 1458.44 634.19
  Q 1459.04 641.55 1461.12 648.67
  A 1.12 1.12 0.0 0 0 1462.17 649.48
  Z
  M 1410.50 753.18
  Q 1410.77 753.47 1410.97 753.13
  C 1413.55 748.96 1414.64 745.01 1415.08 739.75
  C 1416.48 723.24 1417.60 708.40 1415.82 693.92
  Q 1414.89 686.37 1414.48 681.55
  Q 1411.73 648.67 1404.31 619.74
  Q 1402.71 613.53 1398.08 606.56
  Q 1397.78 606.11 1397.43 606.53
  C 1393.79 611.00 1389.13 613.46 1385.60 617.64
  Q 1370.99 634.94 1354.58 650.59
  Q 1350.82 654.18 1347.51 658.39
  Q 1347.21 658.77 1347.43 659.19
  Q 1351.05 666.44 1354.19 670.06
  C 1375.13 694.28 1391.35 721.54 1408.03 750.43
  C 1408.60 751.41 1409.69 752.30 1410.50 753.18
  Z"
/>
<path fill="#ffffff" d="
  M 393.35 666.93
  Q 400.48 669.01 407.75 670.50
  Q 433.91 675.85 460.92 680.65
  Q 463.56 681.12 461.17 682.34
  Q 439.06 693.59 415.96 705.96
  C 410.75 708.75 404.14 712.77 402.57 718.50
  C 397.43 737.30 395.89 756.62 392.72 775.77
  Q 391.86 780.98 391.99 786.17
  A 0.36 0.36 0.0 0 1 391.31 786.34
  C 385.78 775.24 380.78 764.06 374.61 753.26
  Q 366.88 739.72 359.60 725.93
  Q 359.37 725.50 358.91 725.35
  C 354.18 723.75 349.95 721.14 345.93 720.60
  C 332.08 718.75 318.26 715.74 304.67 713.89
  Q 296.05 712.71 287.55 711.40
  A 0.48 0.48 0.0 0 1 287.41 710.50
  Q 315.41 695.95 342.33 679.60
  C 347.76 676.31 351.02 672.22 351.92 666.05
  Q 356.04 637.67 359.75 608.71
  A 0.78 0.77 -55.7 0 1 361.20 608.43
  L 392.89 666.56
  A 0.77 0.75 -5.5 0 0 393.35 666.93
  Z"
/>
<path fill="#ffffff" d="
  M 646.21 910.19
  C 625.05 888.73 604.70 865.44 588.78 843.21
  C 581.32 832.79 568.47 813.55 560.55 798.01
  C 545.56 768.59 532.49 742.25 519.64 708.34
  C 517.42 702.49 516.33 695.83 514.33 689.58
  C 512.13 682.72 508.63 676.99 508.16 668.38
  Q 508.09 667.11 509.35 667.32
  Q 510.79 667.57 512.40 668.39
  Q 528.40 676.54 564.08 696.16
  C 570.21 699.53 572.36 702.99 574.93 709.78
  C 594.23 760.84 623.31 807.25 658.61 849.11
  C 659.82 850.55 661.48 851.78 662.73 853.11
  A 1.09 1.09 0.0 0 0 664.59 852.60
  Q 673.06 813.73 687.64 776.75
  Q 690.67 769.07 694.34 762.22
  A 1.78 1.77 28.6 0 1 696.78 761.51
  Q 716.43 772.50 736.63 782.55
  Q 740.73 784.58 742.11 787.86
  A 3.45 3.45 0.0 0 1 742.16 790.38
  C 737.36 803.30 731.71 817.03 727.97 829.32
  Q 720.31 854.47 716.24 880.49
  C 715.13 887.60 714.88 901.49 722.08 905.91
  C 736.21 914.59 776.69 891.99 789.14 884.43
  C 812.50 870.23 834.67 854.16 857.02 836.25
  C 858.59 834.99 860.10 835.82 861.73 836.55
  C 869.37 839.98 877.17 843.81 884.58 846.91
  Q 1009.19 898.97 1136.85 942.70
  A 0.80 0.80 0.0 0 1 1137.33 943.77
  C 1134.69 950.04 1131.47 954.61 1126.67 961.66
  C 1119.51 972.19 1114.49 984.24 1109.25 995.77
  Q 1109.03 996.25 1109.56 996.24
  Q 1114.40 996.20 1118.25 995.23
  Q 1151.57 986.86 1183.55 974.27
  Q 1196.56 969.14 1209.85 964.74
  A 1.48 1.47 45.3 0 1 1210.81 964.75
  Q 1237.20 974.04 1263.52 983.14
  Q 1268.00 984.69 1271.71 986.50
  A 1.58 1.57 42.6 0 1 1271.83 989.27
  C 1254.60 999.51 1235.59 1007.29 1217.63 1016.21
  C 1184.38 1032.73 1150.75 1041.14 1114.02 1049.39
  C 1093.67 1053.97 1072.46 1056.19 1051.75 1058.48
  C 1027.35 1061.18 998.81 1061.34 976.43 1059.25
  C 964.49 1058.14 951.11 1055.53 939.75 1054.26
  Q 896.16 1049.39 848.70 1034.02
  Q 816.04 1023.45 794.43 1013.57
  Q 777.41 1005.79 741.73 986.31
  C 737.71 984.12 735.33 980.57 731.56 978.44
  Q 715.67 969.50 705.07 962.69
  C 683.06 948.54 667.23 931.51 646.21 910.19
  Z
  M 786.96 949.81
  C 792.97 955.22 800.79 959.34 808.28 962.76
  Q 837.40 976.07 850.51 980.73
  Q 895.27 996.66 942.24 1003.38
  C 952.82 1004.90 964.97 1005.91 976.37 1007.04
  C 979.50 1007.35 982.67 1007.04 985.93 1007.16
  Q 1010.17 1008.06 1034.46 1008.00
  C 1041.53 1007.98 1045.21 1003.04 1048.38 996.64
  C 1056.70 979.88 1066.29 963.61 1074.22 946.72
  A 0.76 0.76 0.0 0 0 1073.87 945.72
  C 1054.51 936.30 1034.10 930.19 1013.68 923.56
  Q 992.88 916.81 964.99 904.06
  C 945.04 894.94 923.04 886.09 905.25 873.13
  A 3.29 3.28 44.7 0 0 901.35 873.15
  C 865.28 900.13 828.13 929.62 786.15 948.83
  A 0.23 0.23 0.0 0 0 786.05 949.17
  Q 786.19 949.36 786.36 949.45
  A 0.80 0.02 29.7 0 1 786.96 949.81
  Z"
/>
<path fill="#ffffff" d="
  M 418.09 811.14
  A 0.35 0.35 0.0 0 1 418.02 810.47
  Q 436.26 802.78 453.20 791.96
  C 456.68 789.74 457.77 786.53 458.40 782.22
  Q 460.78 765.99 462.42 749.79
  A 0.43 0.43 0.0 0 1 463.20 749.59
  Q 474.21 765.95 482.68 783.77
  A 1.25 1.22 -1.6 0 0 483.36 784.40
  Q 489.21 786.69 491.50 786.98
  C 503.23 788.47 514.74 790.65 526.57 791.11
  A 0.18 0.18 0.0 0 1 526.67 791.44
  Q 520.51 796.02 513.97 800.02
  C 508.84 803.17 490.76 810.64 489.33 817.10
  Q 487.45 825.61 486.34 834.24
  C 485.38 841.66 482.80 848.80 481.57 856.24
  A 0.62 0.61 40.1 0 1 480.38 856.34
  Q 473.25 835.61 460.09 818.11
  A 1.31 1.30 -14.9 0 0 459.22 817.61
  C 454.03 816.87 448.69 816.61 443.75 815.73
  Q 431.23 813.50 418.09 811.14
  Z"
/>
<path fill="#ffffff" d="
  M 281.76 866.00
  Q 280.90 865.86 281.59 865.32
  Q 282.90 864.28 284.71 863.23
  Q 299.86 854.39 314.94 845.45
  C 316.92 844.27 318.21 841.35 318.53 838.85
  Q 320.60 822.36 323.46 805.91
  A 0.45 0.44 31.2 0 1 324.25 805.72
  Q 332.72 816.71 339.04 829.20
  C 340.22 831.54 341.30 835.08 343.56 837.57
  C 346.93 841.26 356.66 841.26 361.86 842.73
  C 369.01 844.76 376.36 845.39 383.57 847.70
  Q 384.17 847.90 383.63 848.21
  Q 378.04 851.49 372.65 854.90
  C 364.77 859.89 352.89 862.45 349.82 872.71
  C 348.11 878.42 347.80 885.71 347.03 890.09
  Q 345.41 899.22 343.39 908.18
  A 0.52 0.52 0.0 0 1 342.41 908.27
  Q 337.39 896.86 330.31 886.43
  C 326.08 880.20 325.32 872.50 316.25 871.25
  Q 300.05 869.02 281.76 866.00
  Z"
/>
</svg>
